<?xml version="1.0" encoding="utf-8"?>
<svg viewBox="0 0 511.994 511.994" xmlns="http://www.w3.org/2000/svg">
  <rect width="511.994" height="511.994" rx="60" ry="60" style="fill: rgb(255, 255, 255);"/>
  <path style="fill: rgb(68, 78, 108);" d="M 426.164 158.167 C 425.186 84.166 364.973 22.057 290.742 22.057 C 243.452 22.057 199.046 47.62 174.537 84.463 C 163.751 77.292 150.82 73.098 136.903 73.098 C 99.311 73.098 68.847 103.569 68.847 141.154 C 68.847 142.456 68.967 143.723 69.043 145.016 C 68.958 146.565 68.847 148.13 68.847 149.661 C 34.913 165.926 9.299 204.59 9.299 244.555 C 9.299 299.978 54.641 345.32 110.064 345.32 L 128.396 345.32 L 128.396 322.284 C 128.396 316.209 133.312 311.293 139.378 311.293 L 372.612 311.293 C 378.678 311.293 383.603 316.209 383.603 322.284 L 383.603 345.32 L 405.84 345.32 C 452.671 345.32 494.491 312.271 501.585 265.976 C 509.498 214.389 474.101 167.202 426.164 158.167"/>
  <g style="" transform="matrix(0.9636769890785217, 0, 0, 0.9636769890785217, 9.298576354980469, 9.298617362976074)">
    <path style="fill: rgb(255, 255, 255);" d="M388.401,163.307c-4.29,0-8.051-3.125-8.713-7.503c-0.733-4.82,2.578-9.322,7.397-10.055&#10;&#9;&#9;&#9;c22.872-3.469,45.815-0.141,46.777,0c4.82,0.715,8.148,5.199,7.442,10.019c-0.706,4.829-5.244,8.166-10.019,7.442&#10;&#9;&#9;&#9;c-0.221-0.026-21.389-3.072-41.551,0C389.293,163.281,388.843,163.307,388.401,163.307"/>
    <path style="fill: rgb(255, 255, 255);" d="M 170.126 153.846 C 165.244 153.846 161.297 149.891 161.297 145.018 C 161.297 110.944 133.57 83.225 99.504 83.225 C 65.438 83.225 37.711 110.944 37.711 145.018 C 37.711 149.891 33.765 153.846 28.883 153.846 C 24.001 153.846 20.055 149.891 20.055 145.018 C 20.055 101.216 55.692 65.57 99.503 65.57 C 143.314 65.57 178.952 101.216 178.952 145.018 C 178.953 149.891 175.007 153.846 170.126 153.846" transform="matrix(0.625140011311, -0.780512988567, 0.780512988567, 0.625140011311, -48.328628543995, 118.788905482535)"/>
    <path style="fill: rgb(131, 137, 157);" d="M326.617,498.756H185.376c-34.127,0-61.793-27.666-61.793-61.793V324.782&#10;&#9;&#9;c0-6.303,5.102-11.405,11.405-11.405h242.017c6.303,0,11.405,5.102,11.405,11.405v112.181&#10;&#9;&#9;C388.41,471.09,360.745,498.756,326.617,498.756"/>
    <path style="fill: rgb(255, 255, 255);" d="M 191.729 140.72 C 186.847 140.72 182.901 136.765 182.901 131.892 C 182.901 97.818 155.174 70.099 121.108 70.099 C 87.042 70.099 59.315 97.818 59.315 131.892 C 59.315 136.765 55.369 140.72 50.487 140.72 C 45.605 140.72 41.659 136.765 41.659 131.892 C 41.659 88.09 77.296 52.444 121.107 52.444 C 164.918 52.444 200.555 88.09 200.555 131.892 C 200.556 136.765 196.61 140.72 191.729 140.72" transform="matrix(0.985920011997, -0.167219996452, 0.167219996452, 0.985920011997, -14.445257680986, 21.611384899582)"/>
  </g>
  <g transform="matrix(1.1149710416793823, 0, 0, 1.1149710416793823, 3.2000839710235596, -54.149810791015625)" style="">
    <path style="fill: rgb(68, 78, 108);" d="M255.996,454.618c-4.882,0-8.828-3.955-8.828-8.828v-26.483c0-4.873,3.946-8.828,8.828-8.828&#10;&#9;&#9;&#9;c4.882,0,8.828,3.955,8.828,8.828v26.483C264.824,450.663,260.878,454.618,255.996,454.618"/>
    <path style="fill: rgb(68, 78, 108);" d="M 255.996 375.169 C 246.25900000000001 375.169 238.341 383.087 238.341 392.82399999999996 C 238.341 402.561 246.25900000000001 410.4789999999999 255.996 410.4789999999999 C 265.733 410.4789999999999 273.651 402.5609999999999 273.651 392.82399999999996 C 273.652 383.088 265.733 375.169 255.996 375.169"/>
    <path style="fill: rgb(68, 78, 108);" d="M 255.996 428.135 C 236.52200000000002 428.135 220.686 412.298 220.686 392.825 C 220.686 373.352 236.523 357.515 255.996 357.515 C 275.46900000000005 357.515 291.30600000000004 373.352 291.30600000000004 392.825 C 291.30600000000004 412.298 275.47 428.135 255.996 428.135"/>
  </g>
  <path style="fill: rgb(255, 255, 255);" d="M 339.936 311.292 L 305.909 311.292 L 305.909 277.264 C 305.909 244.436 279.189 217.716 246.36 217.716 C 213.532 217.716 186.811 244.436 186.811 277.264 L 186.811 311.292 L 152.783 311.292 L 152.783 277.264 C 152.783 225.67 194.765 183.688 246.359 183.688 C 297.954 183.688 339.935 225.67 339.935 277.264 L 339.935 311.292 L 339.936 311.292 Z"/>
</svg>