<?xml version="1.0" encoding="utf-8"?>
<svg viewBox="0 0 511.994 511.994" xmlns="http://www.w3.org/2000/svg">
  <path style="fill: rgb(68, 78, 108);" d="M432.578,154.48c-1.015-76.791-63.497-141.241-140.526-141.241&#10;&#9;&#9;c-49.073,0-95.153,26.527-120.585,64.759c-11.193-7.442-24.611-11.794-39.053-11.794c-39.009,0-70.621,31.62-70.621,70.621&#10;&#9;&#9;c0,1.351,0.124,2.666,0.203,4.008c-0.088,1.607-0.203,3.231-0.203,4.82C26.58,162.531,0,202.652,0,244.124&#10;&#9;&#9;c0,57.512,47.051,104.563,104.563,104.563h19.023v-23.905c0-6.303,5.102-11.405,11.396-11.405h242.026&#10;&#9;&#9;c6.294,0,11.405,5.102,11.405,11.405v23.905h23.075c48.596,0,91.992-34.295,99.354-82.335&#10;&#9;&#9;C519.053,212.821,482.322,163.855,432.578,154.48"/>
  <g>
    <path style="fill: rgb(255, 255, 255);" d="M388.401,163.307c-4.29,0-8.051-3.125-8.713-7.503c-0.733-4.82,2.578-9.322,7.397-10.055&#10;&#9;&#9;&#9;c22.872-3.469,45.815-0.141,46.777,0c4.82,0.715,8.148,5.199,7.442,10.019c-0.706,4.829-5.244,8.166-10.019,7.442&#10;&#9;&#9;&#9;c-0.221-0.026-21.389-3.072-41.551,0C389.293,163.281,388.843,163.307,388.401,163.307"/>
    <path style="fill: rgb(255, 255, 255);" d="M 170.126 153.846 C 165.244 153.846 161.297 149.891 161.297 145.018 C 161.297 110.944 133.57 83.225 99.504 83.225 C 65.438 83.225 37.711 110.944 37.711 145.018 C 37.711 149.891 33.765 153.846 28.883 153.846 C 24.001 153.846 20.055 149.891 20.055 145.018 C 20.055 101.216 55.692 65.57 99.503 65.57 C 143.314 65.57 178.952 101.216 178.952 145.018 C 178.953 149.891 175.007 153.846 170.126 153.846" transform="matrix(0.625140011311, -0.780512988567, 0.780512988567, 0.625140011311, -48.328628543995, 118.788905482535)"/>
    <path style="fill: rgb(131, 137, 157);" d="M326.617,498.756H185.376c-34.127,0-61.793-27.666-61.793-61.793V324.782&#10;&#9;&#9;c0-6.303,5.102-11.405,11.405-11.405h242.017c6.303,0,11.405,5.102,11.405,11.405v112.181&#10;&#9;&#9;C388.41,471.09,360.745,498.756,326.617,498.756"/>
    <path style="fill: rgb(255, 255, 255);" d="M 191.729 140.72 C 186.847 140.72 182.901 136.765 182.901 131.892 C 182.901 97.818 155.174 70.099 121.108 70.099 C 87.042 70.099 59.315 97.818 59.315 131.892 C 59.315 136.765 55.369 140.72 50.487 140.72 C 45.605 140.72 41.659 136.765 41.659 131.892 C 41.659 88.09 77.296 52.444 121.107 52.444 C 164.918 52.444 200.555 88.09 200.555 131.892 C 200.556 136.765 196.61 140.72 191.729 140.72" transform="matrix(0.985920011997, -0.167219996452, 0.167219996452, 0.985920011997, -14.445257680986, 21.611384899582)"/>
  </g>
  <g transform="matrix(1.1569969654083252, 0, 0, 1.1569969654083252, -6.328358173370361, -65.83993530273438)" style="">
    <path style="fill: rgb(68, 78, 108);" d="M255.996,454.618c-4.882,0-8.828-3.955-8.828-8.828v-26.483c0-4.873,3.946-8.828,8.828-8.828&#10;&#9;&#9;&#9;c4.882,0,8.828,3.955,8.828,8.828v26.483C264.824,450.663,260.878,454.618,255.996,454.618"/>
    <path style="fill: rgb(68, 78, 108);" d="M 255.996 375.169 C 246.25900000000001 375.169 238.341 383.087 238.341 392.82399999999996 C 238.341 402.561 246.25900000000001 410.4789999999999 255.996 410.4789999999999 C 265.733 410.4789999999999 273.651 402.5609999999999 273.651 392.82399999999996 C 273.652 383.088 265.733 375.169 255.996 375.169"/>
    <path style="fill: rgb(68, 78, 108);" d="M 255.996 428.135 C 236.52200000000002 428.135 220.686 412.298 220.686 392.825 C 220.686 373.352 236.523 357.515 255.996 357.515 C 275.46900000000005 357.515 291.30600000000004 373.352 291.30600000000004 392.825 C 291.30600000000004 412.298 275.47 428.135 255.996 428.135"/>
  </g>
  <path style="fill: rgb(255, 255, 255);" d="M 343.1 313.376 L 307.79 313.376 L 307.79 278.066 C 307.79 244 280.063 216.273 245.997 216.273 C 211.931 216.273 184.203 244 184.203 278.066 L 184.203 313.376 L 148.893 313.376 L 148.893 278.066 C 148.893 224.527 192.457 180.963 245.996 180.963 C 299.535 180.963 343.099 224.527 343.099 278.066 L 343.099 313.376 L 343.1 313.376 Z"/>
</svg>