<?xml version="1.0" standalone="no"?>
<!DOCTYPE svg PUBLIC "-//W3C//DTD SVG 20010904//EN"
 "http://www.w3.org/TR/2001/REC-SVG-20010904/DTD/svg10.dtd">
<svg version="1.0" xmlns="http://www.w3.org/2000/svg"
 width="700.000000pt" height="700.000000pt" viewBox="0 0 700.000000 700.000000"
 preserveAspectRatio="xMidYMid meet">
<metadata>
Created by potrace 1.14, written by Peter Selinger 2001-2017
</metadata>
<g transform="translate(0.000000,700.000000) scale(0.100000,-0.100000)"
fill="#000000" stroke="none">
<path d="M3813 6809 c-506 -49 -1002 -309 -1337 -702 l-49 -57 82 -85 c140
-146 233 -310 280 -495 26 -104 26 -126 1 -168 -28 -45 -82 -68 -130 -53 -56
17 -79 49 -102 142 -25 109 -103 267 -171 349 -150 184 -403 300 -654 300
-386 0 -724 -268 -814 -645 -29 -121 -23 -332 11 -440 47 -146 105 -239 232
-372 84 -87 88 -93 88 -137 0 -80 -82 -144 -151 -117 -43 16 -139 103 -203
183 -81 100 -139 204 -179 316 l-32 90 -56 -41 c-199 -149 -352 -333 -464
-556 -84 -167 -126 -302 -150 -481 -19 -135 -19 -222 0 -363 80 -613 559
-1112 1170 -1222 51 -9 181 -18 298 -22 l207 -6 0 -606 c0 -356 4 -640 10
-689 26 -203 113 -377 256 -513 149 -140 308 -210 518 -229 146 -13 1906 -13
2052 0 225 20 398 102 549 261 122 129 202 299 224 479 7 51 11 326 11 692 l0
608 158 0 c430 0 684 68 956 253 627 429 760 1277 299 1896 -151 202 -400 384
-628 460 l-59 19 -18 -28 c-37 -61 -49 -64 -248 -51 -131 8 -221 8 -333 0
-173 -12 -203 -6 -232 51 -40 78 5 161 100 180 78 15 389 23 500 12 55 -5 101
-9 101 -8 1 0 -4 46 -11 101 -78 592 -426 1124 -937 1433 -339 205 -752 299
-1145 261z m-191 -2310 c271 -54 497 -178 691 -378 179 -184 292 -394 353
-656 13 -55 17 -143 21 -407 l5 -338 241 -3 c133 -1 -512 -2 -1433 -3 -921 0
-1629 2 -1574 3 l101 4 6 307 c6 341 15 419 72 589 134 401 448 713 847 844
78 25 197 50 308 63 69 8 267 -5 362 -25z m-1862 -1812 c0 -2 -12 -14 -27 -28
l-28 -24 24 28 c23 25 31 32 31 24z m3510 -22 c13 -14 21 -25 18 -25 -2 0 -15
11 -28 25 -13 14 -21 25 -18 25 2 0 15 -11 28 -25z"/>
<path d="M3218 4030 c-292 -49 -552 -271 -649 -553 -42 -124 -49 -188 -49
-484 l0 -273 846 0 846 0 -4 303 c-5 269 -7 311 -27 382 -87 321 -339 559
-659 621 -79 15 -227 17 -304 4z"/>
</g>
</svg>
